<svg width="12" height="12" viewBox="0 0 12 12" fill="none" xmlns="http://www.w3.org/2000/svg">
<path d="M9.88775 3.75195H9.88298C9.82247 3.75248 9.76189 3.75363 9.70139 3.75484H9.69365C9.61826 3.75626 9.54293 3.75774 9.46732 3.75774H9.44548C8.6983 3.76151 7.95213 3.81826 7.21155 3.92764C7.15181 3.9361 6.97014 3.96171 6.96203 4.17935C6.95638 4.33388 7.0527 4.44295 7.21349 4.46406C7.29329 4.47311 7.3736 4.47504 7.4537 4.46983C7.75963 4.45537 8.06548 4.44041 8.37134 4.42493L8.45295 4.4209C8.66375 4.41039 8.87447 4.40005 9.08527 4.38987C9.10001 4.38913 9.11498 4.38871 9.1303 4.38851L6.64656 6.50729L6.18116 6.0353C5.8478 5.69679 5.50315 5.34678 5.16197 5.00499C4.95667 4.79943 4.7792 4.79185 4.58652 4.98062L4.47005 5.09467C4.02699 5.52866 3.5689 5.97744 3.12258 6.42385C2.63104 6.91522 2.14575 7.41287 1.77785 7.79151C1.69552 7.87751 1.62264 7.97397 1.5607 8.07888C1.5287 8.1312 1.5151 8.19456 1.52246 8.2572C1.52983 8.31992 1.55766 8.37736 1.6007 8.41888C1.64499 8.46904 1.70544 8.49784 1.76885 8.49888C1.80957 8.4984 1.84956 8.48696 1.88538 8.46552L1.91474 8.44872C1.96665 8.42184 2.01567 8.38872 2.06088 8.34976L2.16901 8.25008C2.41431 8.0236 2.66791 7.78925 2.91135 7.55066C3.38003 7.09138 3.85552 6.62049 4.31518 6.16505L4.32325 6.15701C4.50088 5.98095 4.67893 5.80469 4.85741 5.62816L4.87933 5.64617C4.90704 5.66796 4.93375 5.69133 4.95928 5.71616L5.24652 6.01052C5.61446 6.38741 5.99494 6.77718 6.36577 7.16394C6.56837 7.37539 6.72266 7.38967 6.9346 7.21755C6.96862 7.18993 7.00136 7.16042 7.0349 7.13018L7.0423 7.12351C7.06194 7.10587 7.0815 7.08822 7.10152 7.071C7.84507 6.43273 8.58893 5.79477 9.333 5.15705C9.37254 5.12318 9.41397 5.0909 9.45756 5.05729C9.40594 5.27922 9.35404 5.5011 9.30199 5.72299L9.28486 5.79608C9.22883 6.03488 9.1731 6.27363 9.11758 6.51238L9.11122 6.53958C9.09141 6.61036 9.08035 6.68382 9.0784 6.75791C9.07999 6.83839 9.10479 6.91627 9.1491 6.98011C9.19341 7.04402 9.255 7.09054 9.32491 7.11306C9.39474 7.13554 9.46927 7.1328 9.53765 7.10518C9.60604 7.07757 9.66466 7.02659 9.705 6.95953C9.747 6.88723 9.77707 6.80721 9.79377 6.72325C9.93517 5.99949 10.1022 5.13992 10.2689 4.25245C10.2965 4.10617 10.276 3.98162 10.2097 3.89225C10.1416 3.80047 10.0302 3.75195 9.88775 3.75195Z" fill="#443030"/>
<path d="M11.9315 7.26874C11.8901 6.17061 11.8481 5.21152 11.803 4.33696C11.772 3.73712 11.7279 2.94784 11.6606 2.1616C11.5627 1.01432 10.7289 0.184025 9.63276 0.142335C8.82146 0.111408 7.99592 0.0984917 7.19719 0.0859949C6.96945 0.0824773 6.73825 0.0846381 6.51453 0.0867381C6.14754 0.0902037 5.76802 0.0938269 5.39671 0.0719839C4.55319 0.0228899 3.65889 0.0640029 2.49774 0.205982C1.74239 0.298394 1.17399 0.544126 0.708685 0.979406C0.32518 1.33814 0.138243 1.75419 0.137294 2.25144C0.136962 2.41153 0.134063 2.57378 0.128607 2.73372C0.123862 2.87454 0.115088 3.01846 0.106737 3.15761C0.0828881 3.45548 0.0764681 3.75474 0.0875197 4.05353C0.0946684 4.17808 0.101957 4.30265 0.10939 4.42724C0.166989 5.40306 0.226585 6.41198 0.166092 7.40778C0.141134 7.81849 0.14796 8.23737 0.154508 8.64217L0.155933 8.73177C0.167035 9.42665 0.258841 10.0374 0.436717 10.5988C0.628591 11.2046 1.0011 11.573 1.54392 11.6937C1.87978 11.771 2.22063 11.8188 2.5633 11.8366C3.20107 11.8654 3.84976 11.8814 4.47714 11.8969C4.73218 11.9032 4.98725 11.9098 5.24232 11.9166H5.24322C5.25176 11.9166 5.26006 11.9134 5.26694 11.9078H5.46897C5.6374 11.9078 5.80602 11.9078 5.97479 11.9078L6.24239 11.9083C7.29884 11.9107 8.39098 11.9131 9.45739 11.7281C9.82925 11.6636 10.2636 11.5735 10.6662 11.3945C11.4738 11.0353 11.9097 10.3729 11.9615 9.42585C11.9947 8.81705 11.9697 8.20433 11.9453 7.61182C11.9406 7.49751 11.936 7.38315 11.9315 7.26874ZM0.852494 6.60489C0.839207 5.96929 0.810262 5.28565 0.761301 4.45359C0.722677 3.79652 0.699148 2.93025 0.862412 2.05223C0.8662 2.04023 0.867805 2.02753 0.867147 2.01485C0.829195 1.52165 1.14761 1.32847 1.48437 1.12401L1.4961 1.11692C1.82282 0.918446 2.18463 0.849446 2.52725 0.795735C3.30707 0.682221 4.09316 0.629582 4.87969 0.638214C5.20739 0.638214 5.5306 0.644195 5.84759 0.651598C6.42396 0.664988 7.01002 0.673709 7.57664 0.682162C8.07124 0.689461 8.58255 0.697127 9.08546 0.707786C9.31852 0.710937 9.55108 0.732969 9.78124 0.773688C10.6085 0.926222 11.0661 1.52149 11.1045 2.49517C11.1359 3.29444 11.1649 4.10715 11.1928 4.89333C11.2139 5.48355 11.2353 6.07378 11.2571 6.66397C11.2651 6.87677 11.2761 7.09295 11.2867 7.30187C11.3034 7.63004 11.3206 7.96934 11.3268 8.30289C11.3339 8.69777 11.3142 9.10145 11.2935 9.48105C11.2632 10.0346 10.9722 10.4277 10.4287 10.6495C10.0959 10.779 9.7519 10.8698 9.40223 10.9208C8.22428 11.1151 7.01533 11.1064 5.84635 11.0982L5.69187 11.0971C5.63128 11.0967 5.57069 11.0969 5.51005 11.0971H5.42375C5.41611 11.0971 5.40862 11.0991 5.40178 11.1029C5.395 11.1067 5.38906 11.1122 5.38456 11.119C5.12835 11.1118 4.87214 11.1047 4.61592 11.098C3.86788 11.0776 3.09446 11.0566 2.33404 11.0289C2.13815 11.0158 1.94347 10.986 1.75173 10.9397L1.71667 10.9322C1.39527 10.864 1.1802 10.6444 1.07753 10.279C0.921566 9.70793 0.843566 9.11417 0.846089 8.51753C0.844383 8.24449 0.847889 7.96709 0.851258 7.69841C0.855385 7.33999 0.860084 6.9695 0.852494 6.60489Z" fill="#443030"/>
</svg>
